<svg width="25" height="25" viewBox="0 0 25 25" fill="none" xmlns="http://www.w3.org/2000/svg">
<g clip-path="url(#clip0)">
<path d="M24.8675 18.2497C24.8372 18.1844 24.809 18.1303 24.7828 18.087C24.349 17.3058 23.5201 16.3469 22.2966 15.2101L22.2708 15.1841L22.2578 15.1713L22.2447 15.1582H22.2316C21.6763 14.6289 21.3247 14.2729 21.1774 14.0907C20.908 13.7436 20.8476 13.3922 20.9949 13.0362C21.0989 12.7672 21.4897 12.1991 22.1664 11.3312C22.5223 10.8713 22.8042 10.5026 23.0123 10.2249C24.5137 8.22893 25.1646 6.95349 24.9649 6.39805L24.8873 6.26826C24.8352 6.19012 24.7007 6.11863 24.4841 6.05343C24.2669 5.98838 23.9893 5.97762 23.6507 6.02097L19.9021 6.04687C19.8414 6.02535 19.7547 6.02736 19.6417 6.05343C19.5288 6.07951 19.4724 6.0926 19.4724 6.0926L19.4072 6.12519L19.3554 6.16436C19.312 6.19025 19.2642 6.2358 19.2121 6.3009C19.1603 6.36578 19.1169 6.44191 19.0823 6.52867C18.6742 7.57867 18.2101 8.5549 17.6894 9.45732C17.3683 9.99543 17.0734 10.4618 16.8041 10.8566C16.5351 11.2514 16.3095 11.5422 16.1274 11.7286C15.9451 11.9152 15.7805 12.0647 15.6327 12.1776C15.4851 12.2906 15.3724 12.3383 15.2944 12.3209C15.2162 12.3034 15.1426 12.2861 15.0729 12.2688C14.9515 12.1906 14.8538 12.0843 14.7802 11.9499C14.7063 11.8154 14.6565 11.6461 14.6305 11.4422C14.6046 11.2381 14.5892 11.0626 14.5849 10.915C14.5808 10.7676 14.5827 10.5591 14.5915 10.2901C14.6005 10.021 14.6046 9.83892 14.6046 9.74345C14.6046 9.41365 14.611 9.05572 14.6239 8.66956C14.637 8.28341 14.6476 7.97745 14.6565 7.75205C14.6654 7.52642 14.6695 7.28771 14.6695 7.03605C14.6695 6.78439 14.6542 6.58703 14.6239 6.44378C14.594 6.30072 14.5481 6.16185 14.4876 6.02722C14.4267 5.89273 14.3376 5.78869 14.2207 5.71483C14.1036 5.64107 13.958 5.58253 13.7847 5.53904C13.3247 5.43495 12.739 5.37865 12.0273 5.36989C10.4134 5.35257 9.37631 5.45679 8.91639 5.68242C8.73417 5.77775 8.56927 5.908 8.42182 6.07276C8.26559 6.26374 8.24379 6.36797 8.35658 6.38511C8.87732 6.46311 9.24597 6.64972 9.46293 6.94473L9.54112 7.10106C9.60194 7.21385 9.66267 7.41354 9.72344 7.69985C9.78412 7.98616 9.82328 8.30288 9.84051 8.64982C9.88383 9.2834 9.88383 9.82574 9.84051 10.2769C9.79707 10.7283 9.75604 11.0796 9.71687 11.3313C9.67771 11.5829 9.61917 11.7869 9.54112 11.943C9.46293 12.0992 9.41091 12.1947 9.38484 12.2293C9.3588 12.264 9.3371 12.2858 9.31987 12.2944C9.20708 12.3376 9.08977 12.3596 8.96837 12.3596C8.84678 12.3596 8.69933 12.2988 8.52582 12.1773C8.35234 12.0557 8.17231 11.8888 7.9857 11.6761C7.7991 11.4635 7.58866 11.1662 7.35427 10.7845C7.12008 10.4027 6.87708 9.95148 6.62542 9.43084L6.4172 9.05325C6.28704 8.81035 6.10924 8.45666 5.88361 7.9925C5.65785 7.52816 5.4583 7.079 5.28482 6.64511C5.21548 6.46288 5.11131 6.32415 4.97248 6.22869L4.90733 6.18952C4.86402 6.15487 4.7945 6.11808 4.69912 6.07887C4.60361 6.03971 4.50395 6.01163 4.39973 5.99435L0.833215 6.02024C0.468763 6.02024 0.221479 6.10281 0.0912725 6.26771L0.0391624 6.34572C0.0131301 6.38916 0 6.45855 0 6.55407C0 6.64953 0.0260323 6.7667 0.0781424 6.90543C0.598788 8.12909 1.16498 9.3092 1.77671 10.446C2.38845 11.5827 2.92004 12.4984 3.37116 13.1922C3.82237 13.8865 4.28228 14.5418 4.75091 15.1577C5.21954 15.7739 5.52974 16.1687 5.68151 16.3422C5.83346 16.516 5.95282 16.6459 6.03958 16.7327L6.36505 17.045C6.57331 17.2533 6.87913 17.5028 7.28265 17.7934C7.68627 18.0843 8.1331 18.3706 8.62338 18.6528C9.11375 18.9346 9.68423 19.1646 10.3351 19.3424C10.9859 19.5205 11.6194 19.5919 12.2355 19.5574H13.7325C14.036 19.5312 14.266 19.4358 14.4224 19.271L14.4742 19.2057C14.509 19.154 14.5416 19.0735 14.5717 18.9652C14.6021 18.8568 14.6173 18.7373 14.6173 18.6073C14.6084 18.2342 14.6368 17.898 14.7017 17.5986C14.7666 17.2994 14.8405 17.0737 14.9232 16.9218C15.0059 16.77 15.0992 16.6419 15.203 16.538C15.307 16.4339 15.3811 16.3709 15.4246 16.3492C15.4679 16.3273 15.5024 16.3125 15.5284 16.3036C15.7367 16.2342 15.9818 16.3014 16.2641 16.5055C16.5461 16.7095 16.8107 16.9613 17.0582 17.2605C17.3055 17.5601 17.6026 17.8961 17.9497 18.2692C18.2969 18.6424 18.6006 18.9198 18.8608 19.1023L19.121 19.2585C19.2948 19.3627 19.5205 19.4582 19.7982 19.5449C20.0754 19.6317 20.3183 19.6534 20.5269 19.61L23.859 19.558C24.1886 19.558 24.445 19.5035 24.6269 19.3952C24.8092 19.2867 24.9175 19.1672 24.9524 19.0372C24.9872 18.9071 24.9891 18.7595 24.959 18.5945C24.9281 18.4298 24.8977 18.3147 24.8675 18.2497Z" fill="#888888"/>
</g>
<defs>
<clipPath id="clip0">
<rect width="25" height="25" fill="white"/>
</clipPath>
</defs>
</svg>
