<svg width="140" height="130" viewBox="0 0 140 130" fill="none" xmlns="http://www.w3.org/2000/svg">
<g filter="url(#filter0_d)">
<path d="M125 65.5082C125 90.6326 87.8597 111 61.791 111C35.7224 111 15 96.7802 15 71.6557C15 46.5313 42.2895 11 68.3582 11C94.4269 11 125 40.3838 125 65.5082Z" fill="#F07E4E"/>
<path d="M52.8229 68.2504C52.5365 71.2843 51.4167 73.654 49.4636 75.3598C47.5104 77.0525 44.9128 77.8988 41.6706 77.8988C39.405 77.8988 37.4063 77.365 35.6745 76.2973C33.9557 75.2165 32.6276 73.6866 31.6901 71.7074C30.7526 69.7283 30.2643 67.4301 30.2253 64.8129V62.1566C30.2253 59.4744 30.7005 57.1111 31.6511 55.0668C32.6016 53.0225 33.9623 51.447 35.7331 50.3402C37.5169 49.2335 39.5742 48.6801 41.905 48.6801C45.043 48.6801 47.569 49.5329 49.4831 51.2387C51.3972 52.9444 52.5104 55.3533 52.8229 58.4652H47.9011C47.6667 56.421 47.0677 54.9496 46.1042 54.0512C45.1537 53.1397 43.7539 52.684 41.905 52.684C39.7565 52.684 38.1029 53.4718 36.944 55.0473C35.7982 56.6098 35.2123 58.9079 35.1862 61.9418V64.4613C35.1862 67.5343 35.7331 69.878 36.8268 71.4926C37.9336 73.1072 39.5482 73.9145 41.6706 73.9145C43.6107 73.9145 45.069 73.4783 46.0456 72.6059C47.0222 71.7335 47.6406 70.2816 47.9011 68.2504H52.8229ZM72.1198 70.184C72.1198 68.934 71.6771 67.9704 70.7917 67.2934C69.9193 66.6163 68.3373 65.9327 66.0456 65.2426C63.7539 64.5525 61.931 63.7843 60.5768 62.9379C57.9857 61.3103 56.6901 59.1879 56.6901 56.5707C56.6901 54.279 57.6211 52.391 59.4831 50.9066C61.3581 49.4223 63.7865 48.6801 66.7682 48.6801C68.7474 48.6801 70.5117 49.0447 72.0612 49.7738C73.6107 50.503 74.8281 51.5447 75.7136 52.8988C76.599 54.24 77.0417 55.7309 77.0417 57.3715H72.1198C72.1198 55.8871 71.6511 54.7283 70.7136 53.8949C69.7891 53.0486 68.461 52.6254 66.7292 52.6254C65.1146 52.6254 63.8581 52.9704 62.9597 53.6606C62.0742 54.3507 61.6315 55.3142 61.6315 56.5512C61.6315 57.5928 62.1133 58.4652 63.0768 59.1684C64.0404 59.8585 65.6289 60.5356 67.8425 61.1996C70.056 61.8507 71.8334 62.5994 73.1745 63.4457C74.5156 64.279 75.4987 65.2426 76.1237 66.3363C76.7487 67.4171 77.0612 68.6866 77.0612 70.1449C77.0612 72.5147 76.1498 74.4027 74.3268 75.809C72.5169 77.2022 70.056 77.8988 66.944 77.8988C64.8867 77.8988 62.9922 77.5212 61.2604 76.766C59.5417 75.9978 58.2005 74.9431 57.237 73.602C56.2865 72.2608 55.8112 70.6983 55.8112 68.9145H60.7526C60.7526 70.529 61.2865 71.779 62.3542 72.6645C63.4219 73.5499 64.9518 73.9926 66.944 73.9926C68.6628 73.9926 69.9518 73.6475 70.8112 72.9574C71.6836 72.2543 72.1198 71.3298 72.1198 70.184ZM96.2604 70.184C96.2604 68.934 95.8177 67.9704 94.9323 67.2934C94.0599 66.6163 92.4779 65.9327 90.1862 65.2426C87.8946 64.5525 86.0716 63.7843 84.7175 62.9379C82.1263 61.3103 80.8307 59.1879 80.8307 56.5707C80.8307 54.279 81.7617 52.391 83.6237 50.9066C85.4987 49.4223 87.9271 48.6801 90.9089 48.6801C92.888 48.6801 94.6524 49.0447 96.2018 49.7738C97.7513 50.503 98.9688 51.5447 99.8542 52.8988C100.74 54.24 101.182 55.7309 101.182 57.3715H96.2604C96.2604 55.8871 95.7917 54.7283 94.8542 53.8949C93.9297 53.0486 92.6016 52.6254 90.8698 52.6254C89.2552 52.6254 87.9987 52.9704 87.1003 53.6606C86.2149 54.3507 85.7722 55.3142 85.7722 56.5512C85.7722 57.5928 86.2539 58.4652 87.2175 59.1684C88.181 59.8585 89.7696 60.5356 91.9831 61.1996C94.1966 61.8507 95.974 62.5994 97.3151 63.4457C98.6563 64.279 99.6393 65.2426 100.264 66.3363C100.889 67.4171 101.202 68.6866 101.202 70.1449C101.202 72.5147 100.29 74.4027 98.4675 75.809C96.6576 77.2022 94.1966 77.8988 91.0847 77.8988C89.0274 77.8988 87.1328 77.5212 85.4011 76.766C83.6823 75.9978 82.3412 74.9431 81.3776 73.602C80.4271 72.2608 79.9518 70.6983 79.9518 68.9145H84.8932C84.8932 70.529 85.4271 71.779 86.4948 72.6645C87.5625 73.5499 89.0925 73.9926 91.0847 73.9926C92.8034 73.9926 94.0925 73.6475 94.9518 72.9574C95.8242 72.2543 96.2604 71.3298 96.2604 70.184Z" fill="#505050"/>
</g>
<defs>
<filter id="filter0_d" x="0" y="0" width="140" height="130" filterUnits="userSpaceOnUse" color-interpolation-filters="sRGB">
<feFlood flood-opacity="0" result="BackgroundImageFix"/>
<feColorMatrix in="SourceAlpha" type="matrix" values="0 0 0 0 0 0 0 0 0 0 0 0 0 0 0 0 0 0 127 0"/>
<feOffset dy="4"/>
<feGaussianBlur stdDeviation="7.5"/>
<feColorMatrix type="matrix" values="0 0 0 0 0 0 0 0 0 0 0 0 0 0 0 0 0 0 0.3 0"/>
<feBlend mode="normal" in2="BackgroundImageFix" result="effect1_dropShadow"/>
<feBlend mode="normal" in="SourceGraphic" in2="effect1_dropShadow" result="shape"/>
</filter>
</defs>
</svg>
