<svg width="137" height="130" viewBox="0 0 137 130" fill="none" xmlns="http://www.w3.org/2000/svg">
<g filter="url(#filter0_d)">
<path d="M122 65.5082C122 90.6326 85.8726 111 60.5149 111C35.1572 111 15 96.7802 15 71.6557C15 46.5313 41.5453 11 66.903 11C92.2607 11 122 40.3838 122 65.5082Z" fill="#379AD6"/>
<path d="M44.0117 76H39.9512V65.5747H29.4614V76H25.3848V52.5391H29.4614V62.3037H39.9512V52.5391H44.0117V76ZM65.3135 55.8262H57.998V76H53.9536V55.8262H46.7026V52.5391H65.3135V55.8262ZM73.6924 52.5391L80.46 70.5215L87.2114 52.5391H92.4805V76H88.4199V68.2656L88.8228 57.9209L81.894 76H78.9775L72.0649 57.937L72.4678 68.2656V76H68.4072V52.5391H73.6924ZM101.391 72.7451H112.042V76H97.3145V52.5391H101.391V72.7451Z" fill="#505050"/>
</g>
<defs>
<filter id="filter0_d" x="0" y="0" width="137" height="130" filterUnits="userSpaceOnUse" color-interpolation-filters="sRGB">
<feFlood flood-opacity="0" result="BackgroundImageFix"/>
<feColorMatrix in="SourceAlpha" type="matrix" values="0 0 0 0 0 0 0 0 0 0 0 0 0 0 0 0 0 0 127 0"/>
<feOffset dy="4"/>
<feGaussianBlur stdDeviation="7.5"/>
<feColorMatrix type="matrix" values="0 0 0 0 0 0 0 0 0 0 0 0 0 0 0 0 0 0 0.3 0"/>
<feBlend mode="normal" in2="BackgroundImageFix" result="effect1_dropShadow"/>
<feBlend mode="normal" in="SourceGraphic" in2="effect1_dropShadow" result="shape"/>
</filter>
</defs>
</svg>
