<svg width="137" height="129" viewBox="0 0 137 129" fill="none" xmlns="http://www.w3.org/2000/svg">
<g filter="url(#filter0_d)">
<path d="M122 64.9631C122 89.8363 85.8726 110 60.5149 110C35.1572 110 15 95.9224 15 71.0492C15 46.176 41.5453 11 66.903 11C92.2607 11 122 40.0899 122 64.9631Z" fill="#F6E095"/>
<path d="M53.1267 41.9285H59.2791V66.8553C59.2791 70.257 58.213 72.9588 56.0808 74.9608C53.9649 76.9627 51.1654 77.9637 47.6824 77.9637C43.9714 77.9637 41.1069 77.0278 39.0886 75.1561C37.0704 73.2843 36.0613 70.6802 36.0613 67.3436H42.2136C42.2136 69.2316 42.6775 70.6557 43.6052 71.616C44.5492 72.56 45.9083 73.032 47.6824 73.032C49.3425 73.032 50.6609 72.4868 51.6375 71.3963C52.6303 70.2895 53.1267 68.7677 53.1267 66.8309V41.9285ZM84.9382 68.3201C84.9382 66.7576 84.3848 65.5532 83.2781 64.7068C82.1876 63.8605 80.21 63.006 77.3455 62.1434C74.4809 61.2807 72.2022 60.3205 70.5095 59.2625C67.2706 57.228 65.6511 54.575 65.6511 51.3035C65.6511 48.4389 66.8149 46.0789 69.1423 44.2234C71.4861 42.368 74.5216 41.4402 78.2488 41.4402C80.7227 41.4402 82.9281 41.896 84.865 42.8074C86.8018 43.7189 88.3236 45.021 89.4304 46.7137C90.5372 48.3901 91.0906 50.2537 91.0906 52.3045H84.9382C84.9382 50.449 84.3523 49.0005 83.1804 47.9588C82.0248 46.9009 80.3647 46.3719 78.2 46.3719C76.1817 46.3719 74.6111 46.8032 73.488 47.6658C72.3813 48.5285 71.8279 49.7329 71.8279 51.2791C71.8279 52.5812 72.4301 53.6717 73.6345 54.5506C74.8389 55.4132 76.8246 56.2596 79.5916 57.0897C82.3585 57.9035 84.5802 58.8393 86.2566 59.8973C87.933 60.9389 89.1619 62.1434 89.9431 63.5106C90.7244 64.8615 91.115 66.4484 91.115 68.2713C91.115 71.2335 89.9757 73.5936 87.697 75.3514C85.4347 77.0929 82.3585 77.9637 78.4685 77.9637C75.8969 77.9637 73.5287 77.4917 71.364 76.5477C69.2156 75.5874 67.5391 74.269 66.3347 72.5926C65.1466 70.9162 64.5525 68.963 64.5525 66.7332H70.7292C70.7292 68.7514 71.3966 70.3139 72.7312 71.4207C74.0658 72.5275 75.9783 73.0809 78.4685 73.0809C80.6169 73.0809 82.2283 72.6496 83.3025 71.7869C84.393 70.908 84.9382 69.7524 84.9382 68.3201Z" fill="#505050"/>
</g>
<defs>
<filter id="filter0_d" x="0" y="0" width="137" height="129" filterUnits="userSpaceOnUse" color-interpolation-filters="sRGB">
<feFlood flood-opacity="0" result="BackgroundImageFix"/>
<feColorMatrix in="SourceAlpha" type="matrix" values="0 0 0 0 0 0 0 0 0 0 0 0 0 0 0 0 0 0 127 0"/>
<feOffset dy="4"/>
<feGaussianBlur stdDeviation="7.5"/>
<feColorMatrix type="matrix" values="0 0 0 0 0 0 0 0 0 0 0 0 0 0 0 0 0 0 0.3 0"/>
<feBlend mode="normal" in2="BackgroundImageFix" result="effect1_dropShadow"/>
<feBlend mode="normal" in="SourceGraphic" in2="effect1_dropShadow" result="shape"/>
</filter>
</defs>
</svg>
