<svg width="63" height="63" viewBox="0 0 63 63" fill="none" xmlns="http://www.w3.org/2000/svg">
<g clip-path="url(#clip0)">
<path d="M62.636 43.7877L59.6326 40.8087C59.1498 40.33 58.3707 40.3333 57.8921 40.8159C57.4133 41.2985 57.4166 42.0777 57.8992 42.5564L60.9025 45.5353C61.1425 45.7734 61.4559 45.8923 61.7691 45.8923C62.0857 45.8923 62.4023 45.7708 62.6429 45.5282C63.1218 45.0456 63.1186 44.2664 62.636 43.7877Z" fill="#505050"/>
<path d="M56.5722 37.7607C56.0916 37.2801 55.3126 37.2801 54.8317 37.7607L54.8296 37.7628C54.349 38.2435 54.3501 39.0217 54.8307 39.5024C55.0707 39.7424 55.3856 39.8624 55.7003 39.8624C56.0158 39.8624 56.3315 39.7419 56.5721 39.5014C57.0527 39.0207 57.0527 38.2415 56.5722 37.7607Z" fill="#505050"/>
<path d="M46.0798 43.4355L58.0188 31.4967C59.8269 29.6884 59.8269 26.7461 58.0186 24.9378C57.381 24.3002 56.6022 23.8884 55.782 23.7005C56.0633 23.0959 56.2122 22.4323 56.2122 21.7456C56.2122 20.5067 55.7297 19.3421 54.8539 18.4663C54.1669 17.7792 53.302 17.3355 52.3633 17.1756C52.8918 15.5654 52.5182 13.7213 51.2401 12.4434C50.5374 11.7408 49.6634 11.3126 48.7512 11.156C48.9041 10.6923 48.9847 10.2025 48.9847 9.70002C48.9847 8.46119 48.5022 7.29655 47.6263 6.4207C46.7504 5.54485 45.5857 5.06239 44.347 5.06239C43.5604 5.06239 42.804 5.25754 42.1321 5.62397L42.0133 5.49637C40.4701 3.83795 38.2856 2.88692 36.0204 2.88692H26.3563C25.6768 2.88692 25.1256 3.43804 25.1256 4.11763V5.73152C25.1256 6.37739 25.2349 7.00616 25.4438 7.5974C24.8872 7.36619 24.2848 7.24475 23.6639 7.24475C22.4251 7.24475 21.2605 7.72721 20.3845 8.60306C19.1058 9.88176 18.7326 11.7272 19.2623 13.3379C18.3494 13.4941 17.4742 13.9225 16.7709 14.6257C15.895 15.5017 15.4125 16.6663 15.4125 17.905C15.4125 18.4066 15.4929 18.8956 15.6451 19.3583C14.7075 19.5187 13.8435 19.9621 13.1571 20.6486C11.7449 22.0608 11.4357 24.1649 12.2294 25.8801C11.3889 26.0721 10.6169 26.4954 9.99209 27.1201C8.18391 28.9283 8.18391 31.8706 9.99209 33.6789L12.4474 36.1341L0.359978 48.2212C-0.120644 48.7018 -0.120644 49.4811 0.359978 49.9618C0.600288 50.202 0.915288 50.3223 1.23017 50.3223C1.54504 50.3223 1.86004 50.2021 2.10035 49.9618L14.3044 37.7578C14.9953 38.152 15.7794 38.3629 16.5965 38.3629C17.8352 38.3629 18.9999 37.8805 19.8758 37.0045C20.8275 36.053 21.2776 34.7872 21.2275 33.538C21.2899 33.5406 21.3523 33.5424 21.4147 33.5424C22.6021 33.5423 23.7901 33.0903 24.694 32.1863C25.5698 31.3104 26.0523 30.1457 26.0523 28.907C26.0523 28.8444 26.0502 28.7821 26.0477 28.7199C26.1094 28.7223 26.171 28.7243 26.2328 28.7243C27.4203 28.7243 28.6081 28.2722 29.5121 27.3682C30.388 26.4922 30.8704 25.3276 30.8704 24.0889C30.8704 24.0262 30.8683 23.964 30.8659 23.9017C30.9275 23.9042 30.9892 23.9062 31.0509 23.9062C32.2386 23.9062 33.4262 23.4541 34.3303 22.5501C36.0293 20.851 36.1315 18.151 34.6379 16.331L42.8075 8.16145C43.2186 7.75022 43.7649 7.52394 44.3463 7.52394C44.9277 7.52394 45.4741 7.75022 45.8852 8.16145C46.2963 8.57255 46.5226 9.11887 46.5226 9.70027C46.5226 10.2815 46.2963 10.8281 45.8851 11.2391L44.6806 12.4436L40.3102 16.814C39.8296 17.2946 39.8296 18.0739 40.3102 18.5546C40.5505 18.7948 40.8655 18.9151 41.1804 18.9151C41.4953 18.9151 41.8103 18.7949 42.0506 18.5546L46.421 14.1842C47.2694 13.3357 48.6501 13.3356 49.4987 14.1841C50.3473 15.0328 50.3473 16.4133 49.4987 17.262L48.2941 18.4666L45.1284 21.6324C44.6477 22.113 44.6477 22.8922 45.1284 23.373C45.3687 23.6132 45.6837 23.7335 45.9986 23.7335C46.3134 23.7335 46.6284 23.6133 46.8687 23.373L50.0345 20.2072C50.4456 19.796 50.992 19.5697 51.5733 19.5697C52.1547 19.5697 52.7012 19.796 53.1123 20.2072C53.5234 20.6183 53.7496 21.1647 53.7496 21.7461C53.7496 22.3273 53.5234 22.8739 53.1121 23.2849L51.4588 24.9383L49.9464 26.4506C49.4658 26.9313 49.4658 27.7105 49.9464 28.1913C50.1867 28.4314 50.5017 28.5518 50.8166 28.5518C51.1315 28.5518 51.4465 28.4316 51.6868 28.1913L53.2002 26.6778C54.0489 25.8306 55.4287 25.8307 56.2769 26.6789C57.1256 27.5274 57.1256 28.9081 56.2769 29.7568L44.3379 41.6957C41.34 44.6937 37.3556 46.4293 33.1187 46.5831C32.8073 46.5944 32.5115 46.7235 32.2915 46.9445L21.2626 58.0143C20.7828 58.4957 20.7842 59.275 21.2658 59.7548C21.5058 59.994 21.8201 60.1137 22.1344 60.1137C22.45 60.1137 22.7658 59.993 23.0061 59.7516L31.1183 51.6095C33.1788 52.9314 35.6021 53.56 38.0661 53.397L44.4151 59.7461C44.6554 59.9863 44.9704 60.1067 45.2853 60.1067C45.6003 60.1067 45.9151 59.9865 46.1554 59.7461C46.6361 59.2655 46.6361 58.4863 46.1554 58.0055L39.4051 51.2544C39.1495 50.999 38.7944 50.8684 38.4342 50.898L38.0441 50.93C36.243 51.0776 34.4628 50.6831 32.9085 49.8121L33.6994 49.0183C38.3772 48.7298 42.7566 46.7588 46.0798 43.4355ZM18.1355 35.2641C17.7244 35.6753 17.1778 35.9016 16.5966 35.9016C16.0152 35.9016 15.4688 35.6753 15.0578 35.2641L11.7323 31.9388C10.8838 31.0902 10.8838 29.7095 11.7323 28.8609C12.1434 28.4497 12.69 28.2234 13.2713 28.2234C13.8526 28.2234 14.3991 28.4497 14.8101 28.8609L18.1356 32.1862C18.984 33.0348 18.984 34.4155 18.1355 35.2641ZM22.9538 30.4457C22.1052 31.2943 20.7242 31.2943 19.876 30.4457L16.5505 27.1203L14.897 25.4668C14.0485 24.6182 14.0485 23.2375 14.897 22.389C15.3081 21.9778 15.8547 21.7515 16.4358 21.7515C17.0172 21.7515 17.5637 21.9778 17.9746 22.389L22.9535 27.3678C22.9535 27.3678 22.9535 27.3678 22.9536 27.3678C23.3648 27.7791 23.5911 28.3255 23.5911 28.9068C23.5911 29.4881 23.3648 30.0346 22.9538 30.4457ZM27.772 25.6275C26.9233 26.4759 25.5425 26.476 24.6941 25.6275L18.5106 19.444C18.0995 19.0329 17.8732 18.4866 17.8732 17.9052C17.8732 17.3239 18.0995 16.7773 18.5107 16.3663C18.935 15.9421 19.4924 15.7299 20.0496 15.7299C20.6065 15.7299 21.1633 15.9418 21.5874 16.3654L24.4057 19.1836L27.7717 22.5497H27.7719C28.1828 22.9608 28.4091 23.5071 28.4091 24.0885C28.4094 24.6699 28.1831 25.2165 27.772 25.6275ZM32.5903 20.8092C31.7417 21.6577 30.361 21.6577 29.5125 20.8092L23.329 14.6257C23.3284 14.6251 23.3277 14.6245 23.3269 14.6237L22.1244 13.4212C21.2759 12.5726 21.2759 11.192 22.1244 10.3433C22.5487 9.91892 23.1061 9.70679 23.6633 9.70679C24.2206 9.70679 24.778 9.91892 25.2022 10.3433L32.59 17.7312C33.0012 18.1423 33.2275 18.6887 33.2275 19.27C33.2276 19.8515 33.0015 20.3982 32.5903 20.8092ZM32.9139 14.5742L29.5335 11.1938C29.9168 11.2756 30.3109 11.3191 30.7121 11.319C30.7211 11.319 30.7302 11.319 30.7393 11.319L34.1167 11.3031C34.7962 11.2999 35.3448 10.7463 35.3416 10.0666C35.3384 9.38884 34.788 8.84165 34.111 8.84165C34.109 8.84165 34.1071 8.84165 34.1051 8.84165L30.7277 8.85752C30.7225 8.85752 30.7176 8.85752 30.7124 8.85752C29.8803 8.85752 29.0976 8.53452 28.5074 7.94722C27.9136 7.3561 27.5867 6.56934 27.5867 5.73139V5.34822H36.0201C37.6043 5.34822 39.1319 6.01329 40.2113 7.17313L40.2614 7.2269L32.9139 14.5742Z" fill="#505050"/>
</g>
<defs>
<clipPath id="clip0">
<rect width="63" height="63" fill="white"/>
</clipPath>
</defs>
</svg>
