<svg width="63" height="63" viewBox="0 0 63 63" fill="none" xmlns="http://www.w3.org/2000/svg">
<path d="M48.3701 52.5778H41.5029C41.255 52.5778 41.0526 52.3755 41.0526 52.1274V50.4559C41.0526 50.2082 40.85 50.0056 40.6023 50.0056H30.9933C30.7454 50.0056 30.5428 50.2082 30.5428 50.4559V52.1274C30.5428 52.3755 30.3402 52.5778 30.0924 52.5778H24.9298C24.6819 52.5778 24.4793 52.7803 24.4793 53.0281V54.9618C24.4793 55.2095 24.6819 55.4121 24.9298 55.4121H48.3698C48.6175 55.4121 48.8201 55.2095 48.8201 54.9618V53.0281C48.8204 52.7808 48.6178 52.5778 48.3701 52.5778Z" fill="#505050"/>
<path d="M59.9076 7.36754H10.9051C9.20021 7.36754 7.81324 8.75467 7.81324 10.4599C7.81324 10.4599 7.81324 16.3563 7.81324 18.5255C7.81324 19.5918 7.73411 19.7426 8.44944 19.7426C8.82935 19.7426 9.2501 19.7426 9.67609 19.7426C10.2764 19.7426 10.1532 19.5918 10.1532 18.5056C10.1532 16.3413 10.1532 10.4599 10.1532 10.4599C10.1532 10.0523 10.4977 9.70787 10.9051 9.70787H59.9076C60.3149 9.70787 60.6594 10.0523 60.6594 10.4599V40.6494H25.7236C25.7236 40.6494 24.4924 40.6471 24.4924 42.2392C24.4924 43.1832 24.4924 45.0712 24.4924 46.0155C24.4924 47.6054 25.7635 47.6054 25.7635 47.6054H59.9076C61.6124 47.6054 62.9999 46.2184 62.9999 44.5135V10.4599C62.9999 8.75483 61.6127 7.36754 59.9076 7.36754ZM35.4065 44.9355C34.6367 44.9355 34.0129 44.3117 34.0129 43.5423C34.0129 42.773 34.6367 42.1488 35.4065 42.1488C36.1756 42.1488 36.7996 42.773 36.7996 43.5423C36.7996 44.3117 36.1756 44.9355 35.4065 44.9355Z" fill="#505050"/>
<path d="M19.7226 22.5045H1.99553C0.894884 22.5045 0 23.3995 0 24.5001V53.6366C0 54.7371 0.894884 55.6325 1.99553 55.6325H19.7226C20.8226 55.6325 21.7181 54.7371 21.7181 53.6366V24.5001C21.7181 23.3995 20.8226 22.5045 19.7226 22.5045ZM8.67236 24.5399H13.0456C13.2542 24.5399 13.4237 24.7089 13.4237 24.9182C13.4237 25.127 13.2544 25.2962 13.0456 25.2962H8.67236C8.46342 25.2962 8.29436 25.127 8.29436 24.9182C8.29436 24.7089 8.46342 24.5399 8.67236 24.5399ZM10.8325 54.2307C10.2621 54.2307 9.79971 53.7683 9.79971 53.1979C9.79971 52.6275 10.2621 52.1651 10.8325 52.1651C11.4029 52.1651 11.8653 52.6275 11.8653 53.1979C11.8653 53.7683 11.4029 54.2307 10.8325 54.2307ZM20.0035 51.1952C20.0035 51.4615 19.7902 51.6794 19.53 51.6794H2.18859C1.92816 51.6794 1.71509 51.4615 1.71509 51.1952V26.984C1.71509 26.7177 1.92832 26.5 2.18859 26.5H19.53C19.7904 26.5 20.0035 26.7178 20.0035 26.984V51.1952Z" fill="#505050"/>
</svg>
